<?xml version="1.0" encoding="UTF-8"?>
<!DOCTYPE svg PUBLIC "-//W3C//DTD SVG 1.1//EN" "http://www.w3.org/Graphics/SVG/1.1/DTD/svg11.dtd">
<svg xmlns="http://www.w3.org/2000/svg" version="1.1" width="416px" height="417px" style="shape-rendering:geometricPrecision; text-rendering:geometricPrecision; image-rendering:optimizeQuality; fill-rule:evenodd; clip-rule:evenodd" xmlns:xlink="http://www.w3.org/1999/xlink">
<g><path style="opacity:0.914" fill="#ececec" d="M 284.5,-0.5 C 287.5,-0.5 290.5,-0.5 293.5,-0.5C 293.5,11.5 293.5,23.5 293.5,35.5C 290.977,36.2537 288.311,36.9204 285.5,37.5C 284.893,37.3764 284.56,37.0431 284.5,36.5C 284.5,24.1667 284.5,11.8333 284.5,-0.5 Z"/></g>
<g><path style="opacity:0.98" fill="#be8127" d="M 246.5,18.5 C 235.443,21.8837 227.443,28.8837 222.5,39.5C 213.925,40.7158 205.591,40.0492 197.5,37.5C 200.588,31.9117 205.088,27.9117 211,25.5C 211.47,24.4232 211.303,23.4232 210.5,22.5C 212.799,17.3851 216.799,14.2184 222.5,13C 229.367,11.9658 236.033,12.6325 242.5,15C 244.093,15.9487 245.426,17.1154 246.5,18.5 Z"/></g>
<g><path style="opacity:0.992" fill="#9d641f" d="M 246.5,18.5 C 248.5,18.5 249.5,19.5 249.5,21.5C 240.006,22.9926 233.006,27.9926 228.5,36.5C 224.402,42.3607 221.068,48.6941 218.5,55.5C 217.5,55.1667 216.833,54.5 216.5,53.5C 217.958,48.5854 219.958,43.9187 222.5,39.5C 227.443,28.8837 235.443,21.8837 246.5,18.5 Z"/></g>
<g><path style="opacity:0.987" fill="#be8127" d="M 280.5,26.5 C 265.188,33.1449 254.188,44.1449 247.5,59.5C 234.965,56.9645 228.632,49.2978 228.5,36.5C 233.006,27.9926 240.006,22.9926 249.5,21.5C 249.312,23.1033 249.812,24.4366 251,25.5C 256.711,19.8829 263.545,18.0496 271.5,20C 275.24,21.1979 278.24,23.3645 280.5,26.5 Z"/></g>
<g><path style="opacity:0.936" fill="#be8127" d="M 206.5,23.5 C 200.087,27.2502 195.42,32.5835 192.5,39.5C 186.808,40.8465 181.808,43.5131 177.5,47.5C 179.17,29.8323 188.836,21.8323 206.5,23.5 Z"/></g>
<g><path style="opacity:0.989" fill="#9d641f" d="M 210.5,22.5 C 211.303,23.4232 211.47,24.4232 211,25.5C 205.088,27.9117 200.588,31.9117 197.5,37.5C 195.441,42.3277 194.108,47.3277 193.5,52.5C 193.167,52.5 192.833,52.5 192.5,52.5C 191.227,48.1985 191.227,43.8652 192.5,39.5C 195.42,32.5835 200.087,27.2502 206.5,23.5C 207.833,23.1667 209.167,22.8333 210.5,22.5 Z"/></g>
<g><path style="opacity:1" fill="#9d641f" d="M 280.5,26.5 C 281.338,26.8417 281.672,27.5084 281.5,28.5C 267.418,34.9145 257.418,45.2478 251.5,59.5C 248.826,65.2014 246.159,70.8681 243.5,76.5C 243.5,75.8333 243.167,75.5 242.5,75.5C 243.366,69.9031 245.033,64.5698 247.5,59.5C 254.188,44.1449 265.188,33.1449 280.5,26.5 Z"/></g>
<g><path style="opacity:0.989" fill="#be8128" d="M 281.5,28.5 C 282.749,31.0873 283.749,33.754 284.5,36.5C 284.56,37.0431 284.893,37.3764 285.5,37.5C 288.311,36.9204 290.977,36.2537 293.5,35.5C 306.951,38.7329 311.951,47.0662 308.5,60.5C 293.756,61.0402 281.423,66.7069 271.5,77.5C 268.909,76.7457 267.076,75.079 266,72.5C 263.316,68.1368 261.482,63.4701 260.5,58.5C 257.518,58.9629 254.518,59.2962 251.5,59.5C 257.418,45.2478 267.418,34.9145 281.5,28.5 Z"/></g>
<g><path style="opacity:1" fill="#b57725" d="M 228.5,36.5 C 228.632,49.2978 234.965,56.9645 247.5,59.5C 245.033,64.5698 243.366,69.9031 242.5,75.5C 226.615,79.4772 218.115,73.1439 217,56.5C 209.923,63.944 202.59,64.2774 195,57.5C 193.991,55.9751 193.491,54.3084 193.5,52.5C 194.108,47.3277 195.441,42.3277 197.5,37.5C 205.591,40.0492 213.925,40.7158 222.5,39.5C 219.958,43.9187 217.958,48.5854 216.5,53.5C 216.833,54.5 217.5,55.1667 218.5,55.5C 221.068,48.6941 224.402,42.3607 228.5,36.5 Z"/></g>
<g><path style="opacity:1" fill="#b57724" d="M 192.5,39.5 C 191.227,43.8652 191.227,48.1985 192.5,52.5C 188.975,58.2295 184.975,63.5628 180.5,68.5C 177.928,61.7756 176.928,54.7756 177.5,47.5C 181.808,43.5131 186.808,40.8465 192.5,39.5 Z"/></g>
<g><path style="opacity:0.997" fill="#fdbc9c" d="M 192.5,52.5 C 192.833,52.5 193.167,52.5 193.5,52.5C 193.491,54.3084 193.991,55.9751 195,57.5C 202.59,64.2774 209.923,63.944 217,56.5C 218.115,73.1439 226.615,79.4772 242.5,75.5C 243.167,75.5 243.5,75.8333 243.5,76.5C 239.428,86.2055 242.428,93.0389 252.5,97C 255.117,97.8215 257.784,98.3215 260.5,98.5C 261.167,98.5 261.5,98.8333 261.5,99.5C 260.593,107.846 259.593,116.179 258.5,124.5C 257.326,125.514 256.66,126.847 256.5,128.5C 255.641,134.935 254.308,141.269 252.5,147.5C 235.106,133.841 217.106,133.007 198.5,145C 194.938,148.058 191.938,151.558 189.5,155.5C 188.675,156.386 187.675,156.719 186.5,156.5C 173.276,150.403 159.609,149.07 145.5,152.5C 148.558,142.248 147.891,132.248 143.5,122.5C 144.038,120.883 144.371,119.216 144.5,117.5C 152.428,104.641 161.095,92.3079 170.5,80.5C 177.37,86.6203 185.37,88.787 194.5,87C 198.792,82.8203 198.126,79.487 192.5,77C 186.593,75.6392 180.593,75.1392 174.5,75.5C 176.529,73.1415 178.529,70.8082 180.5,68.5C 184.975,63.5628 188.975,58.2295 192.5,52.5 Z"/></g>
<g><path style="opacity:1" fill="#b57724" d="M 271.5,77.5 C 265.485,83.1932 261.819,90.1932 260.5,98.5C 257.784,98.3215 255.117,97.8215 252.5,97C 242.428,93.0389 239.428,86.2055 243.5,76.5C 246.159,70.8681 248.826,65.2014 251.5,59.5C 254.518,59.2962 257.518,58.9629 260.5,58.5C 261.482,63.4701 263.316,68.1368 266,72.5C 267.076,75.079 268.909,76.7457 271.5,77.5 Z"/></g>
<g><path style="opacity:1" fill="#9d641f" d="M 308.5,60.5 C 308.5,60.8333 308.5,61.1667 308.5,61.5C 295.214,63.9781 283.548,69.9781 273.5,79.5C 268.467,85.5688 264.467,92.2355 261.5,99.5C 261.5,98.8333 261.167,98.5 260.5,98.5C 261.819,90.1932 265.485,83.1932 271.5,77.5C 281.423,66.7069 293.756,61.0402 308.5,60.5 Z"/></g>
<g><path style="opacity:0.986" fill="#be8127" d="M 308.5,61.5 C 318.924,62.2958 323.091,67.9624 321,78.5C 320.269,80.8987 319.102,83.0653 317.5,85C 321.699,87.2255 324.033,90.7255 324.5,95.5C 313.297,96.6337 302.63,99.6337 292.5,104.5C 290.883,103.411 290.05,101.744 290,99.5C 289.501,95.1794 289.334,90.8461 289.5,86.5C 284.062,86.5212 279.062,85.0212 274.5,82C 273.748,81.3292 273.414,80.4959 273.5,79.5C 283.548,69.9781 295.214,63.9781 308.5,61.5 Z"/></g>
<g><path style="opacity:0.989" fill="#c0832b" d="M 174.5,75.5 C 180.593,75.1392 186.593,75.6392 192.5,77C 198.126,79.487 198.792,82.8203 194.5,87C 185.37,88.787 177.37,86.6203 170.5,80.5C 170.343,77.656 171.676,75.9893 174.5,75.5 Z"/></g>
<g><path style="opacity:1" fill="#b57724" d="M 273.5,79.5 C 273.414,80.4959 273.748,81.3292 274.5,82C 279.062,85.0212 284.062,86.5212 289.5,86.5C 289.334,90.8461 289.501,95.1794 290,99.5C 290.05,101.744 290.883,103.411 292.5,104.5C 280.429,109.903 269.095,116.57 258.5,124.5C 259.593,116.179 260.593,107.846 261.5,99.5C 264.467,92.2355 268.467,85.5688 273.5,79.5 Z"/></g>
<g><path style="opacity:1" fill="#c0832b" d="M 215.5,86.5 C 220.222,86.8605 224.556,88.3605 228.5,91C 231.667,94.1667 234.833,97.3333 238,100.5C 240.704,102.65 240.871,104.816 238.5,107C 228.506,107.257 220.006,103.757 213,96.5C 211.861,92.5789 212.695,89.2456 215.5,86.5 Z"/></g>
<g><path style="opacity:0.987" fill="#9d641f" d="M 324.5,95.5 C 325.833,96.5 325.833,97.5 324.5,98.5C 313.054,99.6504 302.387,102.984 292.5,108.5C 280.566,113.465 269.566,119.965 259.5,128C 258.552,128.483 257.552,128.649 256.5,128.5C 256.66,126.847 257.326,125.514 258.5,124.5C 269.095,116.57 280.429,109.903 292.5,104.5C 302.63,99.6337 313.297,96.6337 324.5,95.5 Z"/></g>
<g><path style="opacity:0.973" fill="#be8128" d="M 324.5,98.5 C 317.564,118.974 310.231,139.307 302.5,159.5C 297.704,155.438 292.371,152.438 286.5,150.5C 292.921,142.002 298.088,132.669 302,122.5C 302.667,120.167 302.667,117.833 302,115.5C 297.828,114.489 294.661,112.156 292.5,108.5C 302.387,102.984 313.054,99.6504 324.5,98.5 Z"/></g>
<g><path style="opacity:1" fill="#f08e6a" d="M 192.5,98.5 C 195.534,105.315 194.201,111.482 188.5,117C 186.099,119.062 183.433,120.729 180.5,122C 173.943,122.924 167.61,124.59 161.5,127C 159.187,129.425 157.52,132.258 156.5,135.5C 154.717,134.652 154.217,133.319 155,131.5C 156.167,126.333 159.333,123.167 164.5,122C 181.148,122.498 190.481,114.665 192.5,98.5 Z"/></g>
<g><path style="opacity:1" fill="#6b4220" d="M 168.5,103.5 C 176.168,103.507 178.168,106.84 174.5,113.5C 167.874,115.705 165.041,113.372 166,106.5C 166.698,105.309 167.531,104.309 168.5,103.5 Z"/></g>
<g><path style="opacity:1" fill="#b57724" d="M 292.5,108.5 C 294.661,112.156 297.828,114.489 302,115.5C 302.667,117.833 302.667,120.167 302,122.5C 298.088,132.669 292.921,142.002 286.5,150.5C 276.899,149.093 268.399,151.426 261,157.5C 259.404,169.938 257.237,182.272 254.5,194.5C 252.885,196.328 252.552,198.328 253.5,200.5C 252.5,203.167 251.5,205.833 250.5,208.5C 238.55,216.471 225.55,222.304 211.5,226C 204.535,227.254 197.535,227.587 190.5,227C 187.135,226.495 184.135,225.328 181.5,223.5C 200.472,217.686 216.472,207.353 229.5,192.5C 233.877,188.289 237.71,183.622 241,178.5C 245.412,168.35 249.245,158.016 252.5,147.5C 254.308,141.269 255.641,134.935 256.5,128.5C 257.552,128.649 258.552,128.483 259.5,128C 269.566,119.965 280.566,113.465 292.5,108.5 Z"/></g>
<g><path style="opacity:1" fill="#6c4220" d="M 203.5,115.5 C 210.163,114.333 212.997,116.999 212,123.5C 208.667,127.5 205.333,127.5 202,123.5C 201.109,120.502 201.609,117.836 203.5,115.5 Z"/></g>
<g><path style="opacity:0.98" fill="#bf8228" d="M 144.5,117.5 C 144.371,119.216 144.038,120.883 143.5,122.5C 137.309,135.22 131.976,148.387 127.5,162C 127.601,164.601 128.935,166.101 131.5,166.5C 133.494,165.511 135.494,164.511 137.5,163.5C 143.249,167.541 149.582,170.208 156.5,171.5C 155.832,177.219 156.832,182.552 159.5,187.5C 155.129,184.974 150.462,183.141 145.5,182C 136.632,181.085 127.966,181.918 119.5,184.5C 118.034,183.653 117.2,182.32 117,180.5C 115.922,174.343 114.755,168.343 113.5,162.5C 121.889,146.119 132.223,131.119 144.5,117.5 Z"/></g>
<g><path style="opacity:1" fill="#f3ae8e" d="M 143.5,122.5 C 147.891,132.248 148.558,142.248 145.5,152.5C 143.115,154.884 141.115,157.55 139.5,160.5C 137.952,160.821 137.285,161.821 137.5,163.5C 135.494,164.511 133.494,165.511 131.5,166.5C 128.935,166.101 127.601,164.601 127.5,162C 131.976,148.387 137.309,135.22 143.5,122.5 Z"/></g>
<g><path style="opacity:1" fill="#f3ae8f" d="M 252.5,147.5 C 249.245,158.016 245.412,168.35 241,178.5C 237.71,183.622 233.877,188.289 229.5,192.5C 225.424,194.636 221.09,195.97 216.5,196.5C 215.652,195.375 214.652,195.375 213.5,196.5C 210.138,196.93 207.305,195.93 205,193.5C 205.257,187.094 205.09,180.761 204.5,174.5C 205.815,173.105 205.481,172.105 203.5,171.5C 199.344,164.671 193.677,159.671 186.5,156.5C 187.675,156.719 188.675,156.386 189.5,155.5C 191.938,151.558 194.938,148.058 198.5,145C 217.106,133.007 235.106,133.841 252.5,147.5 Z"/></g>
<g><path style="opacity:1" fill="#c0822a" d="M 186.5,156.5 C 193.677,159.671 199.344,164.671 203.5,171.5C 199.916,172.819 196.25,173.819 192.5,174.5C 193.15,172.565 193.483,170.565 193.5,168.5C 181.855,168.797 170.355,167.797 159,165.5C 157.251,165.748 156.418,166.748 156.5,168.5C 150.14,167.152 144.473,164.485 139.5,160.5C 141.115,157.55 143.115,154.884 145.5,152.5C 159.609,149.07 173.276,150.403 186.5,156.5 Z"/></g>
<g><path style="opacity:0.992" fill="#fdbc9b" d="M 286.5,150.5 C 292.371,152.438 297.704,155.438 302.5,159.5C 307.885,171.505 307.718,183.505 302,195.5C 299.932,199.07 297.099,201.737 293.5,203.5C 290.481,205.315 287.481,206.981 284.5,208.5C 283.5,208.5 282.5,208.5 281.5,208.5C 272.181,206.437 263.348,202.77 255,197.5C 254.517,196.552 254.351,195.552 254.5,194.5C 257.237,182.272 259.404,169.938 261,157.5C 268.399,151.426 276.899,149.093 286.5,150.5 Z"/></g>
<g><path style="opacity:1" fill="#9f6521" d="M 139.5,160.5 C 144.473,164.485 150.14,167.152 156.5,168.5C 156.5,169.5 156.5,170.5 156.5,171.5C 149.582,170.208 143.249,167.541 137.5,163.5C 137.285,161.821 137.952,160.821 139.5,160.5 Z"/></g>
<g><path style="opacity:1" fill="#b57724" d="M 113.5,162.5 C 114.755,168.343 115.922,174.343 117,180.5C 117.2,182.32 118.034,183.653 119.5,184.5C 112.744,187.38 106.41,191.047 100.5,195.5C 103.48,183.881 107.813,172.881 113.5,162.5 Z"/></g>
<g><path style="opacity:1" fill="#ee8d69" d="M 192.5,174.5 C 192.5,175.167 192.5,175.833 192.5,176.5C 188.561,190.305 179.561,195.638 165.5,192.5C 163.5,190.833 161.5,189.167 159.5,187.5C 156.832,182.552 155.832,177.219 156.5,171.5C 156.5,170.5 156.5,169.5 156.5,168.5C 156.418,166.748 157.251,165.748 159,165.5C 170.355,167.797 181.855,168.797 193.5,168.5C 193.483,170.565 193.15,172.565 192.5,174.5 Z"/></g>
<g><path style="opacity:1" fill="#f08d6a" d="M 274.5,168.5 C 282.934,167.145 290.101,169.478 296,175.5C 296.781,176.944 296.614,178.277 295.5,179.5C 293.639,178.472 292.305,176.972 291.5,175C 288.702,173.086 285.702,172.086 282.5,172C 288.142,177.432 288.976,183.599 285,190.5C 280.909,194.305 276.076,195.472 270.5,194C 269.167,193.333 269.167,192.667 270.5,192C 281.488,193.186 285.988,188.353 284,177.5C 281.775,175.058 279.108,173.391 276,172.5C 272.871,173.983 269.704,175.316 266.5,176.5C 268.129,172.871 270.795,170.205 274.5,168.5 Z"/></g>
<g><path style="opacity:1" fill="#fefdfc" d="M 176.5,170.5 C 181.094,170.865 185.427,171.865 189.5,173.5C 187.328,186.199 179.995,191.699 167.5,190C 160.107,185.157 157.44,178.324 159.5,169.5C 165.138,170.22 170.804,170.553 176.5,170.5 Z"/></g>
<g><path style="opacity:1" fill="#f7c4b3" d="M 176.5,170.5 C 181.167,170.5 185.833,170.5 190.5,170.5C 190.737,171.791 190.404,172.791 189.5,173.5C 185.427,171.865 181.094,170.865 176.5,170.5 Z"/></g>
<g><path style="opacity:1" fill="#9e6522" d="M 203.5,171.5 C 205.481,172.105 205.815,173.105 204.5,174.5C 200.618,175.803 196.618,176.47 192.5,176.5C 192.5,175.833 192.5,175.167 192.5,174.5C 196.25,173.819 199.916,172.819 203.5,171.5 Z"/></g>
<g><path style="opacity:1" fill="#bf8229" d="M 204.5,174.5 C 205.09,180.761 205.257,187.094 205,193.5C 207.305,195.93 210.138,196.93 213.5,196.5C 199.978,206.014 185.978,206.847 171.5,199C 169.294,196.963 167.294,194.797 165.5,192.5C 179.561,195.638 188.561,190.305 192.5,176.5C 196.618,176.47 200.618,175.803 204.5,174.5 Z"/></g>
<g><path style="opacity:0.999" fill="#9e6420" d="M 159.5,187.5 C 161.5,189.167 163.5,190.833 165.5,192.5C 167.294,194.797 169.294,196.963 171.5,199C 185.978,206.847 199.978,206.014 213.5,196.5C 214.652,195.375 215.652,195.375 216.5,196.5C 215.969,198.624 214.635,200.124 212.5,201C 191.641,212.508 173.641,209.174 158.5,191C 145.824,183.395 132.824,182.562 119.5,188.5C 112.562,191.475 105.895,194.809 99.5,198.5C 99.2627,197.209 99.596,196.209 100.5,195.5C 106.41,191.047 112.744,187.38 119.5,184.5C 127.966,181.918 136.632,181.085 145.5,182C 150.462,183.141 155.129,184.974 159.5,187.5 Z"/></g>
<g><path style="opacity:1" fill="#be8127" d="M 216.5,196.5 C 221.09,195.97 225.424,194.636 229.5,192.5C 216.472,207.353 200.472,217.686 181.5,223.5C 174.208,219.187 166.541,215.354 158.5,212C 151.221,210.753 143.888,210.253 136.5,210.5C 134.278,210.822 132.444,210.155 131,208.5C 126.107,202.441 122.274,195.774 119.5,188.5C 132.824,182.562 145.824,183.395 158.5,191C 173.641,209.174 191.641,212.508 212.5,201C 214.635,200.124 215.969,198.624 216.5,196.5 Z"/></g>
<g><path style="opacity:1" fill="#b47624" d="M 119.5,188.5 C 122.274,195.774 126.107,202.441 131,208.5C 132.444,210.155 134.278,210.822 136.5,210.5C 123.348,213.059 110.681,217.392 98.5,223.5C 98.2953,215.133 98.6287,206.8 99.5,198.5C 105.895,194.809 112.562,191.475 119.5,188.5 Z"/></g>
<g><path style="opacity:1" fill="#ef8e6a" d="M 254.5,194.5 C 254.351,195.552 254.517,196.552 255,197.5C 263.348,202.77 272.181,206.437 281.5,208.5C 271.273,209.318 261.94,206.651 253.5,200.5C 252.552,198.328 252.885,196.328 254.5,194.5 Z"/></g>
<g><path style="opacity:0.999" fill="#fdbd9d" d="M 253.5,200.5 C 261.94,206.651 271.273,209.318 281.5,208.5C 281.237,223.733 282.237,238.733 284.5,253.5C 286.212,276.475 289.212,299.142 293.5,321.5C 290.165,355.46 274.165,381.46 245.5,399.5C 229.77,406.454 213.437,408.287 196.5,405C 191.195,403.014 186.195,400.514 181.5,397.5C 171.099,388.4 163.933,377.066 160,363.5C 157.473,351.815 155.973,340.148 155.5,328.5C 156.132,320.486 156.799,312.486 157.5,304.5C 195.804,305.496 219.137,287.496 227.5,250.5C 227.5,250.167 227.5,249.833 227.5,249.5C 228.872,248.488 230.205,247.488 231.5,246.5C 238.454,236.26 244.121,225.26 248.5,213.5C 249.931,212.22 250.598,210.553 250.5,208.5C 251.5,205.833 252.5,203.167 253.5,200.5 Z"/></g>
<g><path style="opacity:0.946" fill="#edecec" d="M 293.5,203.5 C 293.5,242.833 293.5,282.167 293.5,321.5C 289.212,299.142 286.212,276.475 284.5,253.5C 284.5,238.5 284.5,223.5 284.5,208.5C 287.481,206.981 290.481,205.315 293.5,203.5 Z"/></g>
<g><path style="opacity:0.999" fill="#9d631f" d="M 250.5,208.5 C 250.598,210.553 249.931,212.22 248.5,213.5C 235.89,221.43 222.224,226.93 207.5,230C 195.34,231.884 184.006,229.718 173.5,223.5C 163.527,215.837 152.194,212.503 139.5,213.5C 125.333,215.445 111.999,219.778 99.5,226.5C 98.596,225.791 98.2627,224.791 98.5,223.5C 110.681,217.392 123.348,213.059 136.5,210.5C 143.888,210.253 151.221,210.753 158.5,212C 166.541,215.354 174.208,219.187 181.5,223.5C 184.135,225.328 187.135,226.495 190.5,227C 197.535,227.587 204.535,227.254 211.5,226C 225.55,222.304 238.55,216.471 250.5,208.5 Z"/></g>
<g><path style="opacity:1" fill="#b47624" d="M 139.5,213.5 C 138.294,214.88 138.627,216.047 140.5,217C 150.326,223.123 160.993,225.79 172.5,225C 173.056,224.617 173.389,224.117 173.5,223.5C 184.006,229.718 195.34,231.884 207.5,230C 222.224,226.93 235.89,221.43 248.5,213.5C 244.121,225.26 238.454,236.26 231.5,246.5C 231.53,245.503 231.03,244.836 230,244.5C 215.923,251.395 201.09,254.562 185.5,254C 180.232,253.133 175.232,251.466 170.5,249C 160.256,239.111 148.256,232.111 134.5,228C 122.577,224.745 111.577,226.578 101.5,233.5C 100.681,231.228 100.015,228.894 99.5,226.5C 111.999,219.778 125.333,215.445 139.5,213.5 Z"/></g>
<g><path style="opacity:1" fill="#be8127" d="M 139.5,213.5 C 152.194,212.503 163.527,215.837 173.5,223.5C 173.389,224.117 173.056,224.617 172.5,225C 160.993,225.79 150.326,223.123 140.5,217C 138.627,216.047 138.294,214.88 139.5,213.5 Z"/></g>
<g><path style="opacity:0.999" fill="#9d631f" d="M 231.5,246.5 C 230.205,247.488 228.872,248.488 227.5,249.5C 218.998,252.5 210.331,255 201.5,257C 190.264,258.786 179.597,257.119 169.5,252C 159.366,242.55 147.699,235.55 134.5,231C 123.139,228.011 112.473,229.511 102.5,235.5C 101.662,235.158 101.328,234.492 101.5,233.5C 111.577,226.578 122.577,224.745 134.5,228C 148.256,232.111 160.256,239.111 170.5,249C 175.232,251.466 180.232,253.133 185.5,254C 201.09,254.562 215.923,251.395 230,244.5C 231.03,244.836 231.53,245.503 231.5,246.5 Z"/></g>
<g><path style="opacity:1" fill="#b57724" d="M 227.5,249.5 C 227.5,249.833 227.5,250.167 227.5,250.5C 207.311,265.544 184.644,271.21 159.5,267.5C 139.776,265.385 122.609,257.718 108,244.5C 105.653,241.806 103.82,238.806 102.5,235.5C 112.473,229.511 123.139,228.011 134.5,231C 147.699,235.55 159.366,242.55 169.5,252C 179.597,257.119 190.264,258.786 201.5,257C 210.331,255 218.998,252.5 227.5,249.5 Z"/></g>
<g><path style="opacity:1" fill="#f4a789" d="M 227.5,250.5 C 219.137,287.496 195.804,305.496 157.5,304.5C 157.698,292.132 158.365,279.798 159.5,267.5C 184.644,271.21 207.311,265.544 227.5,250.5 Z"/></g>
<g><path style="opacity:1" fill="#c2dbf7" d="M -0.5,315.5 C 44.9955,324.471 90.6622,332.471 136.5,339.5C 130.935,344.624 127.435,350.957 126,358.5C 122.628,377.759 121.794,397.092 123.5,416.5C 86.8333,416.5 50.1667,416.5 13.5,416.5C 9.31324,409.446 4.64657,402.779 -0.5,396.5C -0.5,369.5 -0.5,342.5 -0.5,315.5 Z"/></g>
<g><path style="opacity:0.994" fill="#fefefe" d="M 293.5,321.5 C 308.79,331.743 317.124,346.076 318.5,364.5C 317.827,381.86 315.827,399.194 312.5,416.5C 297.5,416.5 282.5,416.5 267.5,416.5C 260.889,409.865 253.556,404.199 245.5,399.5C 274.165,381.46 290.165,355.46 293.5,321.5 Z"/></g>
<g><path style="opacity:0.996" fill="#fefefe" d="M 155.5,328.5 C 155.973,340.148 157.473,351.815 160,363.5C 163.933,377.066 171.099,388.4 181.5,397.5C 171.474,402.844 162.141,409.177 153.5,416.5C 143.5,416.5 133.5,416.5 123.5,416.5C 121.794,397.092 122.628,377.759 126,358.5C 127.435,350.957 130.935,344.624 136.5,339.5C 142.011,334.572 148.345,330.906 155.5,328.5 Z"/></g>
<g><path style="opacity:1" fill="#c2dbf7" d="M 318.5,364.5 C 351.127,368.216 383.46,373.549 415.5,380.5C 415.5,392.5 415.5,404.5 415.5,416.5C 381.167,416.5 346.833,416.5 312.5,416.5C 315.827,399.194 317.827,381.86 318.5,364.5 Z"/></g>
<g><path style="opacity:1" fill="#a7caf0" d="M -0.5,396.5 C 4.64657,402.779 9.31324,409.446 13.5,416.5C 8.83333,416.5 4.16667,416.5 -0.5,416.5C -0.5,409.833 -0.5,403.167 -0.5,396.5 Z"/></g>
<g><path style="opacity:1" fill="#c3dbf7" d="M 181.5,397.5 C 186.195,400.514 191.195,403.014 196.5,405C 213.437,408.287 229.77,406.454 245.5,399.5C 253.556,404.199 260.889,409.865 267.5,416.5C 229.5,416.5 191.5,416.5 153.5,416.5C 162.141,409.177 171.474,402.844 181.5,397.5 Z"/></g>
</svg>
